{
  "accessors": [
    {
      "bufferView": 2,
      "componentType": 5126,
      "count": 42120,
      "max": [
        10.077621459960938,
        2.6156818866729736,
        8.8008852005004883
      ],
      "min": [
        -15.602456092834473,
        -12.280962944030762,
        -8.9166641235351562
      ],
      "type": "VEC3"
    },
    {
      "bufferView": 2,
      "byteOffset": 505440,
      "componentType": 5126,
      "count": 42120,
      "max": [
        0.99996781349182129,
        0.99974185228347778,
        0.99999690055847168
      ],
      "min": [
        -0.99992930889129639,
        -0.99999308586120605,
        -0.99998915195465088
      ],
      "type": "VEC3"
    },
    {
      "bufferView": 3,
      "componentType": 5126,
      "count": 42120,
      "max": [
        0.99999886751174927,
        0.99999833106994629,
        0.99996113777160645,
        1
      ],
      "min": [
        -0.99997293949127197,
        -0.73504632711410522,
        -0.99994874000549316,
        -1
      ],
      "type": "VEC4"
    },
    {
      "bufferView": 3,
      "byteOffset": 673920,
      "componentType": 5126,
      "count": 42120,
      "max": [
        0.75294101238250732,
        0.75294101238250732,
        0.75294101238250732,
        1
      ],
      "min": [
        0.75294101238250732,
        0.75294101238250732,
        0.75294101238250732,
        1
      ],
      "type": "VEC4"
    },
    {
      "bufferView": 1,
      "componentType": 5126,
      "count": 42120,
      "max": [
        0.99697500467300415,
        0.99804598093032837
      ],
      "min": [
        0.0019570000004023314,
        0.042045000940561295
      ],
      "type": "VEC2"
    },
    {
      "bufferView": 0,
      "componentType": 5125,
      "count": 243441,
      "max": [
        42119
      ],
      "min": [
        0
      ],
      "type": "SCALAR"
    },
    {
      "bufferView": 2,
      "byteOffset": 1010880,
      "componentType": 5126,
      "count": 16152,
      "max": [
        12.602435111999512,
        2.3284769058227539,
        8.7637252807617188
      ],
      "min": [
        -13.58348560333252,
        -12.080758094787598,
        -8.6098089218139648
      ],
      "type": "VEC3"
    },
    {
      "bufferView": 2,
      "byteOffset": 1204704,
      "componentType": 5126,
      "count": 16152,
      "max": [
        0.99978405237197876,
        0.99752932786941528,
        0.99959439039230347
      ],
      "min": [
        -0.99952113628387451,
        -0.99997460842132568,
        -0.99990218877792358
      ],
      "type": "VEC3"
    },
    {
      "bufferView": 3,
      "byteOffset": 1347840,
      "componentType": 5126,
      "count": 16152,
      "max": [
        0.99985754489898682,
        0.99996954202651978,
        0.99998277425765991,
        1
      ],
      "min": [
        -0.99777120351791382,
        -0.46607598662376404,
        -0.99365353584289551,
        -1
      ],
      "type": "VEC4"
    },
    {
      "bufferView": 3,
      "byteOffset": 1606272,
      "componentType": 5126,
      "count": 16152,
      "max": [
        0.75294101238250732,
        0.75294101238250732,
        0.75294101238250732,
        1
      ],
      "min": [
        0.75294101238250732,
        0.75294101238250732,
        0.75294101238250732,
        1
      ],
      "type": "VEC4"
    },
    {
      "bufferView": 1,
      "byteOffset": 336960,
      "componentType": 5126,
      "count": 16152,
      "max": [
        0.88777601718902588,
        0.99792098999023438
      ],
      "min": [
        0.001955999992787838,
        0.053497999906539917
      ],
      "type": "VEC2"
    },
    {
      "bufferView": 0,
      "byteOffset": 973764,
      "componentType": 5125,
      "count": 93423,
      "max": [
        16151
      ],
      "min": [
        0
      ],
      "type": "SCALAR"
    },
    {
      "bufferView": 2,
      "byteOffset": 1398528,
      "componentType": 5126,
      "count": 25753,
      "max": [
        11.624334335327148,
        2.5972020626068115,
        8.4875650405883789
      ],
      "min": [
        -15.31568431854248,
        -12.27197265625,
        -8.6039752960205078
      ],
      "type": "VEC3"
    },
    {
      "bufferView": 2,
      "byteOffset": 1707564,
      "componentType": 5126,
      "count": 25753,
      "max": [
        0.97945564985275269,
        0.98032540082931519,
        0.99997782707214355
      ],
      "min": [
        -0.99995392560958862,
        -0.99999344348907471,
        -0.99996435642242432
      ],
      "type": "VEC3"
    },
    {
      "bufferView": 3,
      "byteOffset": 1864704,
      "componentType": 5126,
      "count": 25753,
      "max": [
        0.99997031688690186,
        0.9997212290763855,
        0.99987608194351196,
        1
      ],
      "min": [
        -0.99998319149017334,
        -0.61568409204483032,
        -0.99823606014251709,
        -1
      ],
      "type": "VEC4"
    },
    {
      "bufferView": 3,
      "byteOffset": 2276752,
      "componentType": 5126,
      "count": 25753,
      "max": [
        0.75294101238250732,
        0.75294101238250732,
        0.75294101238250732,
        1
      ],
      "min": [
        0.75294101238250732,
        0.75294101238250732,
        0.75294101238250732,
        1
      ],
      "type": "VEC4"
    },
    {
      "bufferView": 1,
      "byteOffset": 466176,
      "componentType": 5126,
      "count": 25753,
      "max": [
        0.99202197790145874,
        0.99804097414016724
      ],
      "min": [
        0.0020920000970363617,
        0.053362999111413956
      ],
      "type": "VEC2"
    },
    {
      "bufferView": 0,
      "byteOffset": 1347456,
      "componentType": 5125,
      "count": 149184,
      "max": [
        25752
      ],
      "min": [
        0
      ],
      "type": "SCALAR"
    },
    {
      "bufferView": 2,
      "byteOffset": 2016600,
      "componentType": 5126,
      "count": 89,
      "max": [
        -3.6005990505218506,
        -1.1035560369491577,
        4.4775619506835938
      ],
      "min": [
        -11.093052864074707,
        -12.28009033203125,
        -2.2814590930938721
      ],
      "type": "VEC3"
    },
    {
      "bufferView": 2,
      "byteOffset": 2017668,
      "componentType": 5126,
      "count": 89,
      "max": [
        0.67736178636550903,
        0.99632847309112549,
        0.99003881216049194
      ],
      "min": [
        -0.6426880955696106,
        -0.99916273355484009,
        -0.97882336378097534
      ],
      "type": "VEC3"
    },
    {
      "bufferView": 3,
      "byteOffset": 2688800,
      "componentType": 5126,
      "count": 89,
      "max": [
        0,
        0,
        0,
        1
      ],
      "min": [
        0,
        0,
        0,
        1
      ],
      "type": "VEC4"
    },
    {
      "bufferView": 3,
      "byteOffset": 2690224,
      "componentType": 5126,
      "count": 89,
      "max": [
        0.75294101238250732,
        0.75294101238250732,
        0.75294101238250732,
        1
      ],
      "min": [
        0.75294101238250732,
        0.75294101238250732,
        0.75294101238250732,
        1
      ],
      "type": "VEC4"
    },
    {
      "bufferView": 1,
      "byteOffset": 672200,
      "componentType": 5126,
      "count": 89,
      "max": [
        0.2714419960975647,
        0.16912400722503662
      ],
      "min": [
        0.2714419960975647,
        0.16912400722503662
      ],
      "type": "VEC2"
    },
    {
      "bufferView": 0,
      "byteOffset": 1944192,
      "componentType": 5125,
      "count": 201,
      "max": [
        88
      ],
      "min": [
        0
      ],
      "type": "SCALAR"
    },
    {
      "bufferView": 2,
      "byteOffset": 2018736,
      "componentType": 5126,
      "count": 31,
      "max": [
        9.5773468017578125,
        1.8775069713592529,
        0.19070300459861755
      ],
      "min": [
        4.9882059097290039,
        1.2018400430679321,
        -2.9506208896636963
      ],
      "type": "VEC3"
    },
    {
      "bufferView": 2,
      "byteOffset": 2019108,
      "componentType": 5126,
      "count": 31,
      "max": [
        0.85854792594909668,
        -0.51013326644897461,
        0.36803442239761353
      ],
      "min": [
        -0.24142734706401825,
        -0.99949085712432861,
        -0.29167979955673218
      ],
      "type": "VEC3"
    },
    {
      "bufferView": 3,
      "byteOffset": 2691648,
      "componentType": 5126,
      "count": 31,
      "max": [
        0,
        0,
        0,
        1
      ],
      "min": [
        0,
        0,
        0,
        1
      ],
      "type": "VEC4"
    },
    {
      "bufferView": 3,
      "byteOffset": 2692144,
      "componentType": 5126,
      "count": 31,
      "max": [
        0.75294101238250732,
        0.75294101238250732,
        0.75294101238250732,
        1
      ],
      "min": [
        0.75294101238250732,
        0.75294101238250732,
        0.75294101238250732,
        1
      ],
      "type": "VEC4"
    },
    {
      "bufferView": 1,
      "byteOffset": 672912,
      "componentType": 5126,
      "count": 31,
      "max": [
        0.5,
        0.5
      ],
      "min": [
        0.5,
        0.5
      ],
      "type": "VEC2"
    },
    {
      "bufferView": 0,
      "byteOffset": 1944996,
      "componentType": 5125,
      "count": 87,
      "max": [
        30
      ],
      "min": [
        0
      ],
      "type": "SCALAR"
    },
    {
      "bufferView": 2,
      "byteOffset": 2019480,
      "componentType": 5126,
      "count": 21,
      "max": [
        -7.7666678428649902,
        2.1434280872344971,
        0.91445398330688477
      ],
      "min": [
        -9.6834259033203125,
        1.1956110000610352,
        -1.7487310171127319
      ],
      "type": "VEC3"
    },
    {
      "bufferView": 2,
      "byteOffset": 2019732,
      "componentType": 5126,
      "count": 21,
      "max": [
        0.58333098888397217,
        -0.56818711757659912,
        0.44206440448760986
      ],
      "min": [
        -0.82289737462997437,
        -0.99109780788421631,
        -0.40976837277412415
      ],
      "type": "VEC3"
    },
    {
      "bufferView": 3,
      "byteOffset": 2692640,
      "componentType": 5126,
      "count": 21,
      "max": [
        0,
        0,
        0,
        1
      ],
      "min": [
        0,
        0,
        0,
        1
      ],
      "type": "VEC4"
    },
    {
      "bufferView": 3,
      "byteOffset": 2692976,
      "componentType": 5126,
      "count": 21,
      "max": [
        0.75294101238250732,
        0.75294101238250732,
        0.75294101238250732,
        1
      ],
      "min": [
        0.75294101238250732,
        0.75294101238250732,
        0.75294101238250732,
        1
      ],
      "type": "VEC4"
    },
    {
      "bufferView": 1,
      "byteOffset": 673160,
      "componentType": 5126,
      "count": 21,
      "max": [
        0.5,
        0.5
      ],
      "min": [
        0.5,
        0.5
      ],
      "type": "VEC2"
    },
    {
      "bufferView": 0,
      "byteOffset": 1945344,
      "componentType": 5125,
      "count": 57,
      "max": [
        20
      ],
      "min": [
        0
      ],
      "type": "SCALAR"
    }
  ],
  "asset": {
    "extras": {
      "author": "alban (https://sketchfab.com/alban)",
      "license": "CC-BY-4.0 (http://creativecommons.org/licenses/by/4.0/)",
      "source": "https://sketchfab.com/models/9c76ae0676404b5bb2fb7e870907f4fd",
      "title": "Happy Dragon by Hung Yi"
    },
    "generator": "Sketchfab-3.47.8",
    "version": "2.0"
  },
  "bufferViews": [
    {
      "buffer": 0,
      "byteLength": 1945572,
      "byteOffset": 0,
      "name": "floatBufferViews",
      "target": 34963
    },
    {
      "buffer": 0,
      "byteLength": 673328,
      "byteOffset": 1945572,
      "byteStride": 8,
      "name": "floatBufferViews",
      "target": 34962
    },
    {
      "buffer": 0,
      "byteLength": 2019984,
      "byteOffset": 2618900,
      "byteStride": 12,
      "name": "floatBufferViews",
      "target": 34962
    },
    {
      "buffer": 0,
      "byteLength": 2693312,
      "byteOffset": 4638884,
      "byteStride": 16,
      "name": "floatBufferViews",
      "target": 34962
    }
  ],
  "buffers": [
    {
      "byteLength": 7332196,
      "uri": "scene.bin"
    }
  ],
  "images": [
    {
      "uri": "textures/material_0_baseColor.jpeg"
    },
    {
      "uri": "textures/material_2_baseColor.jpeg"
    },
    {
      "uri": "textures/material_1_baseColor.jpeg"
    }
  ],
  "materials": [
    {
      "doubleSided": true,
      "emissiveFactor": [
        0,
        0,
        0
      ],
      "name": "material_0",
      "pbrMetallicRoughness": {
        "baseColorFactor": [
          1,
          1,
          1,
          1
        ],
        "baseColorTexture": {
          "index": 0,
          "texCoord": 0
        },
        "metallicFactor": 0,
        "roughnessFactor": 0.59999999999999998
      }
    },
    {
      "doubleSided": true,
      "emissiveFactor": [
        0,
        0,
        0
      ],
      "name": "material_1",
      "pbrMetallicRoughness": {
        "baseColorFactor": [
          1,
          1,
          1,
          1
        ],
        "baseColorTexture": {
          "index": 2,
          "texCoord": 0
        },
        "metallicFactor": 0,
        "roughnessFactor": 0.59999999999999998
      }
    },
    {
      "doubleSided": true,
      "emissiveFactor": [
        0,
        0,
        0
      ],
      "name": "material_2",
      "pbrMetallicRoughness": {
        "baseColorFactor": [
          1,
          1,
          1,
          1
        ],
        "baseColorTexture": {
          "index": 1,
          "texCoord": 0
        },
        "metallicFactor": 0,
        "roughnessFactor": 0.59999999999999998
      }
    },
    {
      "doubleSided": true,
      "emissiveFactor": [
        0,
        0,
        0
      ],
      "name": "material_3",
      "pbrMetallicRoughness": {
        "baseColorFactor": [
          0.50196099279999995,
          0.50196099279999995,
          0.50196099279999995,
          1
        ],
        "metallicFactor": 0,
        "roughnessFactor": 0.59999999999999998
      }
    },
    {
      "doubleSided": true,
      "emissiveFactor": [
        0,
        0,
        0
      ],
      "name": "material_4",
      "pbrMetallicRoughness": {
        "baseColorFactor": [
          0.065968140999999994,
          0.064598314500000004,
          0.064896546299999996,
          1
        ],
        "metallicFactor": 0,
        "roughnessFactor": 0.59999999999999998
      }
    },
    {
      "alphaMode": "BLEND",
      "doubleSided": true,
      "emissiveFactor": [
        0,
        0,
        0
      ],
      "name": "material_5",
      "pbrMetallicRoughness": {
        "baseColorFactor": [
          0.043764915299999999,
          0.039498459499999999,
          0.036473233299999998,
          0.95294100000000004
        ],
        "metallicFactor": 0,
        "roughnessFactor": 0.59999999999999998
      }
    }
  ],
  "meshes": [
    {
      "primitives": [
        {
          "attributes": {
            "COLOR_0": 3,
            "NORMAL": 1,
            "POSITION": 0,
            "TANGENT": 2,
            "TEXCOORD_0": 4
          },
          "indices": 5,
          "material": 0,
          "mode": 4
        }
      ]
    },
    {
      "primitives": [
        {
          "attributes": {
            "COLOR_0": 9,
            "NORMAL": 7,
            "POSITION": 6,
            "TANGENT": 8,
            "TEXCOORD_0": 10
          },
          "indices": 11,
          "material": 1,
          "mode": 4
        }
      ]
    },
    {
      "primitives": [
        {
          "attributes": {
            "COLOR_0": 15,
            "NORMAL": 13,
            "POSITION": 12,
            "TANGENT": 14,
            "TEXCOORD_0": 16
          },
          "indices": 17,
          "material": 2,
          "mode": 4
        }
      ]
    },
    {
      "primitives": [
        {
          "attributes": {
            "COLOR_0": 21,
            "NORMAL": 19,
            "POSITION": 18,
            "TANGENT": 20,
            "TEXCOORD_0": 22
          },
          "indices": 23,
          "material": 3,
          "mode": 4
        }
      ]
    },
    {
      "primitives": [
        {
          "attributes": {
            "COLOR_0": 27,
            "NORMAL": 25,
            "POSITION": 24,
            "TANGENT": 26,
            "TEXCOORD_0": 28
          },
          "indices": 29,
          "material": 4,
          "mode": 4
        }
      ]
    },
    {
      "primitives": [
        {
          "attributes": {
            "COLOR_0": 33,
            "NORMAL": 31,
            "POSITION": 30,
            "TANGENT": 32,
            "TEXCOORD_0": 34
          },
          "indices": 35,
          "material": 5,
          "mode": 4
        }
      ]
    }
  ],
  "nodes": [
    {
      "children": [
        1
      ],
      "name": "RootNode (gltf orientation matrix)",
      "rotation": [
        -0.70710678118654746,
        -0,
        -0,
        0.70710678118654757
      ]
    },
    {
      "children": [
        2
      ],
      "matrix": [
        -0.00070953532122075558,
        -0.99974530935287476,
        -0.022556068375706673,
        0,
        -0.031430993229150772,
        0.022567225620150566,
        -0.99925112724304199,
        0,
        0.99950569868087769,
        -4.4299998336327917e-08,
        -0.031439002603292465,
        0,
        -1.5949161052703857,
        -6.2231893539428711,
        -4.9227423667907715,
        1
      ],
      "name": "RootNode (model correction matrix)"
    },
    {
      "children": [
        3,
        4,
        5,
        6,
        7,
        8
      ],
      "name": "mesh.obj.cleaner.gles"
    },
    {
      "mesh": 0,
      "name": ""
    },
    {
      "mesh": 1,
      "name": ""
    },
    {
      "mesh": 2,
      "name": ""
    },
    {
      "mesh": 3,
      "name": ""
    },
    {
      "mesh": 4,
      "name": ""
    },
    {
      "mesh": 5,
      "name": ""
    }
  ],
  "samplers": [
    {
      "magFilter": 9729,
      "minFilter": 9987,
      "wrapS": 10497,
      "wrapT": 10497
    }
  ],
  "scene": 0,
  "scenes": [
    {
      "name": "OSG_Scene",
      "nodes": [
        0
      ]
    }
  ],
  "textures": [
    {
      "sampler": 0,
      "source": 0
    },
    {
      "sampler": 0,
      "source": 1
    },
    {
      "sampler": 0,
      "source": 2
    }
  ]
}

